<svg width="17" height="16" viewBox="0 0 17 16" fill="none" xmlns="http://www.w3.org/2000/svg">
<path d="M12.5221 5.12232L11.4846 4.08545L8.50957 7.06045L5.53457 4.08545L4.49707 5.12232L7.4727 8.09795L4.49707 11.0729L5.53457 12.1104L8.50957 9.13482L11.4846 12.1104L12.5221 11.0729L9.54645 8.09795L12.5221 5.12232Z" fill="#202020"/>
<path d="M8.5 1.46687C9.79219 1.46685 11.0554 1.85002 12.1298 2.56792C13.2042 3.28583 14.0416 4.30622 14.536 5.50007C15.0305 6.69391 15.1598 8.00757 14.9077 9.27491C14.6555 10.5423 14.0332 11.7064 13.1194 12.62C12.5127 13.2266 11.7924 13.7078 10.9998 14.0361C10.2071 14.3644 9.35752 14.5333 8.49956 14.5332C7.64161 14.5332 6.79206 14.3641 5.99944 14.0357C5.20681 13.7074 4.48663 13.2261 3.88 12.6194C2.65487 11.3941 1.96666 9.73228 1.96678 7.99956C1.9669 6.26684 2.65533 4.60513 3.88063 3.38C4.48586 2.77152 5.20577 2.28913 5.99869 1.96074C6.79161 1.63235 7.64178 1.46449 8.5 1.46687ZM8.5 0C6.91775 0 5.37103 0.469192 4.05544 1.34824C2.73985 2.22729 1.71447 3.47672 1.10897 4.93853C0.503466 6.40034 0.34504 8.00887 0.653721 9.56072C0.962403 11.1126 1.72433 12.538 2.84315 13.6569C3.96197 14.7757 5.38743 15.5376 6.93928 15.8463C8.49113 16.155 10.0997 15.9965 11.5615 15.391C13.0233 14.7855 14.2727 13.7602 15.1518 12.4446C16.0308 11.129 16.5 9.58225 16.5 8C16.5 5.87827 15.6571 3.84344 14.1569 2.34315C12.6566 0.842855 10.6217 0 8.5 0V0Z" fill="#202020"/>
</svg>
