<svg width="29" height="29" viewBox="0 0 29 29" fill="none" xmlns="http://www.w3.org/2000/svg">
<path d="M19.9658 4.09851C17.9562 4.09851 16.0531 4.76687 14.5 5.99484C12.9469 4.76687 11.0438 4.09851 9.03418 4.09851C4.05207 4.09851 0 8.15171 0 13.1327V20.3442H2.36191V24.9015H9.11121C9.24488 24.8947 12.0463 24.7531 14.5 22.7423C16.9537 24.7531 19.7563 24.8947 19.8888 24.9004H26.6381V20.3442H29V13.1327C29 8.15171 24.9479 4.09851 19.9658 4.09851ZM12.4893 21.0805C10.8999 22.1929 9.20297 22.3459 9.02172 22.3595H4.90395V17.8021H2.54203V13.1327C2.54203 9.553 5.45449 6.64168 9.03418 6.64168C10.4207 6.64168 11.694 7.08234 12.7396 7.84246C11.6634 9.34117 11.0302 11.1514 10.9339 13.0693C10.7742 16.24 11.3938 18.8557 12.777 20.8664C12.683 20.94 12.5878 21.0114 12.4893 21.0805ZM14.5011 18.8171C13.7048 17.3456 13.3593 15.4629 13.4737 13.1973C13.5382 11.9228 13.9053 10.7549 14.5 9.76937C15.0947 10.7549 15.4629 11.9228 15.5263 13.1973C15.6407 15.4697 15.2964 17.349 14.5011 18.8171ZM26.458 17.8021H24.0961V22.3595H19.9783C19.7834 22.3447 17.895 22.1703 16.2241 20.8653C17.6062 18.8534 18.2258 16.2389 18.0661 13.0693C17.9698 11.1525 17.3366 9.34117 16.2604 7.84246C17.306 7.08121 18.5793 6.64054 19.9658 6.64054C23.5455 6.64054 26.4568 9.553 26.4568 13.1316V17.801L26.458 17.8021Z" fill="white"/>
<path d="M21.9142 12.3431C21.1869 12.3431 20.5945 12.9345 20.5945 13.6629C20.5945 14.3913 21.1858 14.9826 21.9142 14.9826C22.6426 14.9826 23.2339 14.3913 23.2339 13.6629C23.2339 12.9345 22.6426 12.3431 21.9142 12.3431Z" fill="white"/>
<path d="M7.08584 12.3431C6.35857 12.3431 5.76611 12.9345 5.76611 13.6629C5.76611 14.3913 6.35744 14.9826 7.08584 14.9826C7.81424 14.9826 8.40557 14.3913 8.40557 13.6629C8.40557 12.9345 7.81424 12.3431 7.08584 12.3431Z" fill="white"/>
</svg>
