<?xml version="1.0" encoding="UTF-8"?><svg width="21" height="21" id="a" xmlns="http://www.w3.org/2000/svg" viewBox="0 0 256 256"><defs><style>.b{fill:#241f20;}</style></defs><path class="b" d="M234.36,168.8c-2.18-46.61-34.64-85.44-78.1-97.22,2.44-4.53,3.83-9.7,3.83-15.19,0-17.72-14.41-32.13-32.13-32.13s-32.13,14.41-32.13,32.13c0,5.61,1.45,10.88,3.98,15.48-42.94,12.12-74.89,50.7-77.05,96.94H0v22.52H256v-22.52h-21.64ZM127.96,46.77c5.3,0,9.61,4.31,9.61,9.61s-4.31,9.61-9.61,9.61-9.61-4.31-9.61-9.61,4.31-9.61,9.61-9.61Zm.6,43.64c44.3,0,80.65,34.73,83.25,78.39H45.31c2.6-43.66,38.94-78.39,83.25-78.39Z"/><rect class="b" x="36.52" y="209.23" width="182.29" height="22.52"/></svg>
