<svg width="38" height="38" viewBox="0 0 38 38" fill="none" xmlns="http://www.w3.org/2000/svg">
<path d="M21.6719 11.3955C22.04 10.4159 22.7228 9.12445 23.9385 8.25609C25.2507 7.31648 26.98 7.03297 29.0774 7.41297L29.5955 4.55703C26.6816 4.02859 24.2012 4.48578 22.2211 5.91375C21.1741 6.68432 20.3075 7.67355 19.6813 8.81273C19.5187 8.09162 19.4935 7.34631 19.6071 6.61586C19.8713 5.02461 20.894 3.60109 22.6456 2.38687L20.9965 0C18.5636 1.68625 17.1371 3.76438 16.7423 6.17352C16.5587 7.37219 16.6229 8.59577 16.9308 9.76867C16.4372 9.41354 16.0033 8.98213 15.6453 8.49063C14.7072 7.17695 14.4237 5.44766 14.8037 3.35023L11.9462 2.83219C11.4178 5.74602 11.875 8.22641 13.303 10.2066C13.6143 10.6348 13.9657 11.0324 14.3524 11.3941H5.69702V38H32.3029V11.3955H21.6719ZM29.3906 23.1355H20.3359V14.299H29.3906V23.1355ZM17.4355 14.299V23.1355H8.60936V14.299H17.4355ZM8.60936 26.0389H17.4429V35.0936H8.60936V26.0389ZM20.3463 35.0936V26.0389H29.401V35.0936H20.3463Z" fill="#595959"/>
</svg>
