<svg width="21" height="17" viewBox="0 0 21 17" fill="none" xmlns="http://www.w3.org/2000/svg">
<path d="M6.3987 0C5.46435 0.00289082 4.55688 0.298053 3.81586 0.840087C3.07485 1.38212 2.54134 2.141 2.2974 3L1.5414 6H1.05C0.42 6 0 6.4 0 7V8C0 8.6 0.42 9 1.05 9V16C1.05 16.6 1.47 17 2.1 17H4.2C4.83 17 5.25 16.6 5.25 16V15H15.75V16C15.75 16.6 16.17 17 16.8 17H18.9C19.53 17 19.95 16.6 19.95 16V9C20.58 9 21 8.6 21 8V7C21 6.4 20.58 6 19.95 6H19.4576L18.7036 3C18.1786 1.2 16.4913 0 14.6013 0H6.3987ZM6.3987 2H14.6013C15.5463 2 16.3937 2.6 16.6036 3.5L17.4888 7H3.5112L4.39635 3.5C4.60635 2.6 5.4537 2 6.3987 2ZM4.725 10C5.565 10 6.3 10.7 6.3 11.5C6.3 12.3 5.565 13 4.725 13C3.885 13 3.15 12.3 3.15 11.5C3.15 10.7 3.885 10 4.725 10ZM16.275 10C17.115 10 17.85 10.7 17.85 11.5C17.85 12.3 17.115 13 16.275 13C15.435 13 14.7 12.3 14.7 11.5C14.7 10.7 15.435 10 16.275 10Z" fill="white"/>
</svg>
