<svg width="38" height="38" viewBox="0 0 38 38" fill="none" xmlns="http://www.w3.org/2000/svg">
<g clip-path="url(#clip0_575_5931)">
<path d="M35.3087 27.8716H2.01709V31.204H35.3087V27.8716Z" fill="#595959"/>
<path d="M30.4713 33.1289H6.76587V36.4613H30.4713V33.1289Z" fill="#595959"/>
<path d="M35.4438 9.83707C35.999 9.56098 36.5052 9.16465 36.9163 8.64957C38.423 6.76145 38.1113 4.00051 36.2246 2.49387C34.3365 0.987228 31.5756 1.29746 30.0689 3.18559C29.6548 3.70512 29.3698 4.29887 29.2243 4.92824C23.6505 2.7002 17.0361 4.25879 13.104 9.18692L12.0649 10.4887L33.9164 27.9227L34.9555 26.6209C38.9203 21.6512 38.9396 14.7875 35.4453 9.83707H35.4438ZM32.674 5.26371C32.8803 5.00395 33.1861 4.87035 33.4949 4.87035C33.7235 4.87035 33.955 4.94457 34.148 5.09895C34.5992 5.45965 34.6735 6.1202 34.3142 6.57145C33.9535 7.0227 33.293 7.09692 32.8417 6.7377C32.6235 6.56254 32.4855 6.31317 32.4543 6.03559C32.4231 5.75801 32.5018 5.4834 32.677 5.2652L32.674 5.26371ZM33.2871 23.1593L16.8476 10.0434C18.4967 8.53082 20.5734 7.58082 22.8385 7.32699C25.6633 7.00934 28.4435 7.8109 30.6671 9.58473C34.8115 12.8919 35.8283 18.6884 33.2871 23.1608V23.1593Z" fill="#595959"/>
<path d="M6.56836 10.1395H4.95039V8.52148H1.61797V10.1395H0V13.4719H1.61797V15.0898H4.95039V13.4719H6.56836V10.1395Z" fill="#595959"/>
<path d="M19.4956 21.0423H17.8776V19.4243H14.5452V21.0423H12.9272V24.3747H14.5452V25.9912H17.8776V24.3747H19.4956V21.0423Z" fill="#595959"/>
<path d="M7.275 20.6489H3.89062V24.0333H7.275V20.6489Z" fill="#595959"/>
<path d="M11.5023 1.62402H8.11792V5.0084H11.5023V1.62402Z" fill="#595959"/>
</g>
<defs>
<clipPath id="clip0_575_5931">
<rect width="38" height="38" fill="white"/>
</clipPath>
</defs>
</svg>
