<svg width="38" height="38" viewBox="0 0 38 38" fill="none" xmlns="http://www.w3.org/2000/svg">
<path d="M34.7878 25.0562C34.4642 18.1376 29.6459 12.3737 23.1948 10.6251C23.557 9.95272 23.7634 9.18529 23.7634 8.37037C23.7634 5.74006 21.6244 3.60107 18.9941 3.60107C16.3638 3.60107 14.2248 5.74006 14.2248 8.37037C14.2248 9.20311 14.44 9.98537 14.8155 10.6682C8.44164 12.4672 3.69906 18.194 3.37844 25.0577H0V28.4005H38V25.0577H34.7878V25.0562ZM18.9941 6.9424C19.7808 6.9424 20.4205 7.58217 20.4205 8.36889C20.4205 9.15561 19.7808 9.79537 18.9941 9.79537C18.2073 9.79537 17.5676 9.15561 17.5676 8.36889C17.5676 7.58217 18.2073 6.9424 18.9941 6.9424ZM19.0831 13.4202C25.6589 13.4202 31.0546 18.5755 31.4405 25.0562H6.7257C7.11164 18.5755 12.5059 13.4202 19.0831 13.4202Z" fill="#595959"/>
<path d="M32.4796 31.0581H5.4209V34.4009H32.4796V31.0581Z" fill="#595959"/>
</svg>
